<svg width="11" height="11" viewBox="0 0 11 11" fill="none" xmlns="http://www.w3.org/2000/svg">
<path fill-rule="evenodd" clip-rule="evenodd" d="M2.70757 0.292431C2.51897 0.110272 2.26637 0.00947813 2.00417 0.0117566C1.74197 0.014035 1.49116 0.119205 1.30575 0.304613C1.12034 0.490021 1.01517 0.740834 1.0129 1.00303C1.01062 1.26523 1.11141 1.51783 1.29357 1.70643L4.58657 4.99943L1.29357 8.29243C1.19806 8.38468 1.12188 8.49502 1.06947 8.61703C1.01706 8.73903 0.989473 8.87025 0.988319 9.00303C0.987165 9.13581 1.01247 9.26749 1.06275 9.39038C1.11303 9.51328 1.18728 9.62493 1.28117 9.71883C1.37507 9.81272 1.48672 9.88697 1.60962 9.93725C1.73251 9.98753 1.86419 10.0128 1.99697 10.0117C2.12975 10.0105 2.26097 9.98294 2.38297 9.93053C2.50498 9.87812 2.61532 9.80194 2.70757 9.70643L6.00057 6.41343L9.29357 9.70643C9.48217 9.88859 9.73477 9.98938 9.99697 9.98711C10.2592 9.98483 10.51 9.87966 10.6954 9.69425C10.8808 9.50884 10.986 9.25803 10.9882 8.99583C10.9905 8.73363 10.8897 8.48103 10.7076 8.29243L7.41457 4.99943L10.7076 1.70643C10.8897 1.51783 10.9905 1.26523 10.9882 1.00303C10.986 0.740834 10.8808 0.490021 10.6954 0.304613C10.51 0.119205 10.2592 0.014035 9.99697 0.0117566C9.73477 0.00947813 9.48217 0.110272 9.29357 0.292431L6.00057 3.58543L2.70757 0.292431Z" fill="#9CA3AF"/>
</svg>
